# Blender v2.78 (sub 0) OBJ File: ''
# www.blender.org
mtllib ground.mtl
o groundCheckered_ID8
v 0.000000 1.000000 1.000000
v 0.000000 1.000000 0.000000
v 1.000000 1.000000 1.000000
v 1.000000 1.000000 0.000000
v 1.000000 -0.000000 1.000000
v 1.000000 0.000000 0.000000
v 0.000000 -0.000000 1.000000
v 0.000000 0.000000 0.000000
vt 0.6012 0.3996
vt 0.6012 0.6872
vt 0.3136 0.6872
vt 0.3136 0.3996
vt 0.8899 0.3998
vt 0.8901 0.6874
vt 0.6025 0.6876
vt 0.6024 0.4000
vt 0.6394 0.3494
vt 0.6394 0.0619
vt 0.9270 0.0619
vt 0.9270 0.3494
vt 0.3129 0.3984
vt 0.3127 0.6860
vt 0.0252 0.6859
vt 0.0253 0.3983
vt 0.6012 0.6884
vt 0.6016 0.9760
vt 0.3140 0.9763
vt 0.3137 0.6888
vt 0.6008 0.1101
vt 0.6008 0.3977
vt 0.3132 0.3977
vt 0.3132 0.1101
vn 0.0000 1.0000 0.0000
vn 1.0000 0.0000 0.0000
vn 0.0000 -1.0000 -0.0000
vn -1.0000 0.0000 0.0000
vn 0.0000 0.0000 -1.0000
vn 0.0000 0.0000 1.0000
usemtl groundCheckered_base_color
s off
f 3/1/1 4/2/1 2/3/1 1/4/1
f 5/5/2 6/6/2 4/7/2 3/8/2
f 7/9/3 8/10/3 6/11/3 5/12/3
f 1/13/4 2/14/4 8/15/4 7/16/4
f 4/17/5 6/18/5 8/19/5 2/20/5
f 5/21/6 3/22/6 1/23/6 7/24/6
