# Blender v2.78 (sub 0) OBJ File: 'minerales.blend'
# www.blender.org
mtllib minerals.mtl
o Mineral_Cylinder
v 0.034444 0.000723 0.134212
v 0.036811 0.205267 0.221390
v -0.002683 -0.000792 0.131696
v -0.033350 0.202404 0.216637
v -0.016877 0.003213 0.100096
v -0.065128 0.217364 0.155648
v 0.000812 0.016556 0.069664
v -0.026746 0.235187 0.099413
v 0.037939 0.018071 0.072179
v 0.043415 0.238051 0.104166
v 0.054755 0.010154 0.104453
v 0.075193 0.223090 0.165155
v -0.001680 0.332996 0.191561
v 0.033465 0.126772 0.182796
v -0.018482 0.124652 0.179277
v -0.042011 0.135728 0.134120
v -0.013593 0.148925 0.092483
v 0.038355 0.151045 0.096002
v 0.061884 0.139968 0.141159
v -0.010380 0.019551 -0.110957
v 0.001816 0.216083 -0.165357
v -0.008394 0.008444 -0.077620
v -0.004540 0.227448 -0.096987
v -0.041662 0.007670 -0.061838
v -0.067407 0.225985 -0.067163
v -0.071567 0.000882 -0.082236
v -0.139043 0.212206 -0.103300
v -0.068204 -0.005132 -0.118415
v -0.117564 0.201792 -0.174079
v -0.024305 0.008958 -0.134449
v -0.068195 0.198969 -0.201507
v -0.058893 0.334780 -0.157146
v -0.017937 0.131837 -0.141071
v -0.010351 0.141203 -0.092387
v -0.056899 0.140120 -0.070306
v -0.098741 0.130622 -0.098845
v -0.094035 0.122208 -0.149466
v -0.047488 0.123291 -0.171548
v 0.072619 0.002583 -0.064510
v 0.113931 0.098836 -0.123113
v 0.055790 0.011691 -0.058347
v 0.082129 0.116047 -0.111466
v 0.038654 0.009107 -0.068535
v 0.049747 0.111165 -0.130719
v 0.038346 -0.002583 -0.084886
v 0.049165 0.089072 -0.161617
v 0.055175 -0.011691 -0.091049
v 0.080966 0.071862 -0.173264
v 0.072311 -0.009107 -0.080861
v 0.113349 0.076744 -0.154011
v 0.095439 0.144028 -0.178429
v 0.095376 0.060989 -0.101765
v 0.071830 0.073732 -0.093142
v 0.047854 0.070117 -0.107397
v 0.047423 0.053760 -0.130274
v 0.070969 0.041017 -0.138897
v 0.094945 0.044632 -0.124643
v -0.089980 0.013367 0.008926
v -0.192477 0.057291 0.005638
v -0.090337 0.007665 -0.008865
v -0.193152 0.046516 -0.027982
v -0.082407 0.018102 -0.022181
v -0.178166 0.066238 -0.053146
v -0.074119 0.034240 -0.017707
v -0.162505 0.096735 -0.044692
v -0.073762 0.039942 0.000084
v -0.161830 0.107510 -0.011072
v -0.081692 0.029505 0.013400
v -0.176816 0.087788 0.014093
v -0.228358 0.105372 -0.027594
v -0.151428 0.041694 0.004998
v -0.151928 0.033717 -0.019894
v -0.140832 0.048319 -0.038526
v -0.129236 0.070899 -0.032266
v -0.128736 0.078877 -0.007374
v -0.139832 0.064274 0.011258
v -0.016062 0.000737 0.078250
v -0.038912 0.100702 0.139474
v -0.032801 -0.008487 0.084155
v -0.070544 0.083272 0.150633
v -0.048928 -0.008487 0.072321
v -0.101021 0.083272 0.128270
v -0.048317 0.000737 0.054581
v -0.099865 0.100702 0.094747
v -0.031578 0.009960 0.048676
v -0.068233 0.118132 0.083588
v -0.015450 0.009960 0.060510
v -0.037757 0.118132 0.105951
v -0.089215 0.153980 0.144129
v -0.032341 0.061782 0.113931
v -0.055761 0.048876 0.122194
v -0.078326 0.048876 0.105636
v -0.077471 0.061782 0.080815
v -0.054050 0.074687 0.072553
v -0.031485 0.074687 0.089111
v 0.097622 -0.000968 0.011705
v 0.146741 0.066698 0.015595
v 0.085849 0.006266 0.006829
v 0.123903 0.084868 0.011976
v 0.083288 0.007234 -0.007565
v 0.119062 0.086697 -0.015225
v 0.092498 0.000968 -0.017083
v 0.136468 0.074856 -0.033211
v 0.103732 -0.007391 -0.007739
v 0.158175 0.060062 -0.019528
v 0.106832 -0.007234 0.002187
v 0.163555 0.059358 0.003204
v 0.165419 0.110823 -0.003312
v 0.126887 0.043241 0.015422
v 0.110415 0.053362 0.008600
v 0.106831 0.054716 -0.011540
v 0.119718 0.045949 -0.024857
v 0.135651 0.034703 -0.013566
v 0.139120 0.034474 0.007693
v 0.084496 -0.019554 0.012324
v 0.233451 0.094664 0.053943
v 0.073763 -0.020651 0.042665
v 0.213168 0.092590 0.111279
v 0.049956 -0.001097 0.052040
v 0.187559 0.124960 0.117719
v 0.036882 0.019554 0.031073
v 0.145683 0.177042 0.079576
v 0.047615 0.020651 0.000732
v 0.163756 0.170639 0.032036
v 0.071422 0.001097 -0.008643
v 0.208745 0.133688 0.014321
v 0.249038 0.206342 0.101849
v 0.172025 0.053014 0.039090
v 0.157008 0.051478 0.081543
v 0.133676 0.078065 0.092843
v 0.105406 0.107731 0.065323
v 0.120423 0.109266 0.022871
v 0.153733 0.081908 0.009754
v 0.043839 0.014114 -0.023464
v 0.071129 0.230593 -0.046143
v 0.061412 0.009307 -0.055947
v 0.104337 0.221510 -0.107527
v 0.097390 -0.000306 -0.056411
v 0.173136 0.214595 -0.113974
v 0.115795 -0.005112 -0.024392
v 0.205993 0.198762 -0.037831
v 0.098222 -0.000306 0.008091
v 0.175091 0.204469 0.003430
v 0.062244 0.009307 0.008555
v 0.105909 0.221510 0.014364
v 0.169363 0.325643 -0.047410
v 0.066684 0.143172 -0.046086
v 0.091272 0.136447 -0.091535
v 0.141611 0.122996 -0.092184
v 0.167363 0.116271 -0.047384
v 0.142776 0.122996 -0.001935
v 0.092436 0.136447 -0.001286
v 0.067520 -0.003395 0.093161
v 0.166618 0.165625 0.177787
v 0.039308 0.012531 0.092873
v 0.102825 0.186012 0.183005
v 0.019244 0.011428 0.063134
v 0.071214 0.217661 0.130345
v 0.036274 0.017388 0.032506
v 0.103396 0.228923 0.072467
v 0.070032 0.006600 0.029745
v 0.166677 0.203693 0.071055
v 0.079524 -0.002892 0.061391
v 0.181821 0.158853 0.132155
v 0.154062 0.288168 0.172515
v 0.116664 0.091745 0.144035
v 0.069432 0.106840 0.147898
v 0.046027 0.130273 0.108909
v 0.069855 0.138611 0.066055
v 0.117088 0.123517 0.062192
v 0.141771 0.114254 0.102581
v -0.061687 0.001388 -0.045739
v -0.174241 0.115505 -0.153680
v -0.037151 0.016291 -0.050903
v -0.149021 0.150012 -0.162307
v -0.034004 0.037865 -0.025741
v -0.126122 0.189421 -0.120527
v -0.055808 0.037396 -0.000585
v -0.164959 0.189245 -0.062594
v -0.080759 0.015352 -0.000591
v -0.212074 0.163328 -0.071259
v -0.083906 -0.006222 -0.025752
v -0.219600 0.119912 -0.110976
v -0.224284 0.245103 -0.147771
v -0.127772 0.064132 -0.115974
v -0.112167 0.097355 -0.113847
v -0.102260 0.128731 -0.080915
v -0.123890 0.124504 -0.049176
v -0.158800 0.093662 -0.049184
v -0.163203 0.063476 -0.084389
v 0.067050 0.002002 -0.045250
v 0.102338 0.199714 -0.136135
v 0.046403 0.015295 -0.017677
v 0.063321 0.224834 -0.084030
v 0.009573 0.014578 -0.020189
v -0.006278 0.223480 -0.088778
v -0.006609 0.000569 -0.050274
v -0.036859 0.197007 -0.145631
v 0.014038 -0.012723 -0.077847
v 0.002158 0.171887 -0.197736
v 0.050868 -0.012007 -0.075335
v 0.071757 0.173241 -0.192988
v 0.034082 0.303394 -0.190513
v 0.083290 0.122635 -0.101112
v 0.054401 0.141233 -0.062533
v 0.002870 0.140231 -0.066049
v -0.019772 0.120630 -0.108143
v 0.009116 0.102031 -0.146722
v 0.060647 0.103034 -0.143207
v -0.078392 0.011936 -0.017165
v -0.168316 0.205773 -0.001955
v -0.046694 0.023941 -0.008902
v -0.113310 0.227037 0.017082
v -0.035099 0.021440 0.023908
v -0.087901 0.216621 0.073950
v -0.055203 0.006934 0.048455
v -0.125891 0.189208 0.120338
v -0.086901 -0.005072 0.040192
v -0.185792 0.166521 0.104723
v -0.098496 -0.002570 0.007382
v -0.199105 0.179782 0.039126
v -0.180943 0.302222 0.076894
v -0.131125 0.106548 0.006070
v -0.088135 0.142399 0.007369
v -0.071913 0.138899 0.053276
v -0.105590 0.113615 0.080765
v -0.146724 0.096724 0.070106
v -0.158700 0.092603 0.040244
v 0.052757 0.005382 0.048597
v 0.092241 0.420853 0.090891
v -0.007285 0.005382 0.074990
v -0.021222 0.420853 0.140767
v -0.060164 0.005382 0.036189
v -0.121147 0.420853 0.067442
v -0.052999 0.005382 -0.029006
v -0.107609 0.420853 -0.055758
v 0.020899 -0.017854 -0.057138
v 0.019710 0.397616 -0.107372
v 0.056282 0.021160 -0.024126
v 0.102140 0.436631 -0.039837
v 0.010095 0.591508 0.000528
v 0.073864 0.241839 0.064085
v -0.010145 0.241839 0.101014
v -0.084130 0.241839 0.046724
v -0.074106 0.241839 -0.044494
v 0.023758 0.218603 -0.083161
v 0.079781 0.258237 -0.041475
vn -0.0429 -0.4394 0.8973
vn -0.8652 -0.3418 0.3670
vn -0.8119 -0.0773 -0.5786
vn 0.0637 0.0896 -0.9939
vn 0.8327 -0.2725 0.4820
vn 0.8860 -0.0080 -0.4636
vn 0.0913 -0.9603 -0.2634
vn -0.0745 0.2054 0.9758
vn 0.7155 0.3560 0.6012
vn 0.7635 0.5946 -0.2520
vn 0.0216 0.6826 -0.7304
vn -0.7683 0.5321 -0.3558
vn -0.8164 0.2935 0.4974
vn -0.0485 -0.3596 0.9319
vn -0.8855 -0.2619 0.3837
vn -0.8408 -0.0093 -0.5413
vn 0.0594 0.1759 -0.9826
vn 0.8379 -0.1906 0.5115
vn 0.8918 0.0771 -0.4458
vn 0.9892 -0.1457 0.0154
vn 0.4282 0.0193 0.9035
vn -0.4695 -0.1356 0.8725
vn -0.9123 -0.3860 -0.1369
vn 0.5824 -0.2580 -0.7709
vn -0.4251 -0.4055 -0.8092
vn 0.2590 -0.9655 0.0271
vn 0.8905 0.4550 0.0072
vn 0.3916 0.2613 -0.8822
vn -0.4491 0.3051 -0.8398
vn -0.8512 0.4162 -0.3196
vn -0.4513 0.5894 0.6700
vn 0.3367 0.5843 0.7384
vn 0.9932 0.0174 -0.1155
vn 0.4242 0.1063 0.8993
vn -0.5616 -0.0117 0.8273
vn -0.9758 -0.2115 -0.0556
vn 0.7892 -0.0738 -0.6096
vn -0.3227 -0.3169 -0.8919
vn 0.4527 0.2592 0.8531
vn -0.5065 0.4435 0.7395
vn -0.9991 0.0404 -0.0100
vn -0.5326 -0.5470 -0.6459
vn 0.9193 -0.3281 0.2173
vn 0.4267 -0.7313 -0.5322
vn -0.2196 -0.7916 0.5702
vn 0.5458 0.7290 0.4131
vn 0.9667 0.1991 -0.1605
vn 0.5223 -0.1646 -0.8367
vn -0.3431 0.0016 -0.9393
vn -0.7641 0.5315 -0.3656
vn -0.3196 0.8952 0.3106
vn 0.4777 0.3325 0.8131
vn -0.4933 0.5190 0.6981
vn -0.9920 0.1109 -0.0606
vn -0.5197 -0.4836 -0.7043
vn 0.9500 -0.2621 0.1695
vn 0.4513 -0.6702 -0.5892
vn -0.3355 -0.8951 0.2936
vn -0.1054 -0.7512 -0.6516
vn 0.3873 0.0562 -0.9202
vn 0.6500 0.7198 -0.2437
vn -0.0729 -0.2315 0.9701
vn 0.4199 0.5759 0.7014
vn 0.8652 -0.4823 0.1372
vn -0.8438 -0.5059 0.1791
vn -0.6068 0.0928 0.7894
vn -0.1622 0.8212 0.5470
vn 0.0454 0.9510 -0.3057
vn -0.1916 0.3524 -0.9160
vn -0.6362 -0.3761 -0.6736
vn -0.4162 -0.8634 0.2851
vn -0.1833 -0.7178 -0.6717
vn 0.3155 0.0996 -0.9437
vn 0.5814 0.7713 -0.2589
vn -0.1504 -0.1917 0.9699
vn 0.3485 0.6257 0.6979
vn 0.4976 -0.4156 0.7613
vn -0.4352 -0.6774 0.5931
vn -0.8756 -0.4156 -0.2463
vn -0.3831 0.1079 -0.9174
vn 0.9901 0.1079 0.0903
vn 0.5497 0.3697 -0.7491
vn 0.3150 -0.8465 -0.4293
vn 0.2520 0.1544 0.9553
vn 0.6962 0.6268 0.3499
vn 0.2989 0.8630 -0.4074
vn -0.5426 0.6268 -0.5592
vn -0.9869 0.1544 0.0463
vn -0.5896 -0.0818 0.8035
vn 0.4758 -0.3458 0.8087
vn -0.4684 -0.6108 0.6384
vn -0.9142 -0.3458 -0.2113
vn -0.4157 0.1842 -0.8906
vn 0.9743 0.1842 0.1294
vn 0.5286 0.4492 -0.7203
vn -0.2118 0.0655 0.9751
vn -0.9102 0.3696 0.1868
vn -0.6526 0.1644 -0.7397
vn 0.2760 -0.4269 -0.8611
vn 0.4200 -0.3086 0.8534
vn 0.7051 -0.6916 -0.1565
vn -0.5558 -0.8291 0.0606
vn 0.1269 0.3448 0.9301
vn 0.6131 0.0773 0.7862
vn 0.9706 -0.0645 -0.2317
vn 0.6033 0.1633 -0.7806
vn -0.2017 0.7170 -0.6672
vn -0.4858 0.8621 0.1444
vn -0.3118 0.1272 0.9416
vn -0.8741 0.4489 0.1857
vn -0.6133 0.2411 -0.7522
vn 0.3680 -0.3823 -0.8476
vn 0.4041 -0.3789 0.8326
vn 0.7824 -0.6001 -0.1662
vn 0.5281 -0.8346 0.1566
vn -0.1398 -0.3900 0.9102
vn -0.5553 0.1763 0.8127
vn -0.7732 0.5510 -0.3141
vn 0.4868 -0.4512 -0.7480
vn -0.1634 0.2576 -0.9523
vn -0.6721 -0.6923 -0.2628
vn 0.9128 -0.2619 0.3134
vn 0.8790 0.0790 -0.4702
vn 0.2809 0.6710 -0.6862
vn -0.2237 0.9511 -0.2131
vn -0.2992 0.3954 0.8684
vn 0.2468 0.0025 0.9691
vn 0.5941 -0.7836 0.1818
vn -0.0332 -0.4368 0.8990
vn -0.6163 0.2218 0.7556
vn -0.7224 0.6515 -0.2320
vn 0.5523 -0.3955 -0.7339
vn -0.1059 0.3221 -0.9408
vn -0.8759 0.0442 -0.4804
vn -0.0901 -0.1865 -0.9783
vn 0.8117 -0.3595 -0.4604
vn 0.7552 -0.3756 0.5372
vn -0.8632 0.0442 0.5028
vn 0.0598 -0.1411 0.9882
vn -0.2581 -0.9661 0.0033
vn -0.6288 0.6441 -0.4355
vn -0.6174 0.6441 0.4516
vn 0.2359 0.3854 0.8921
vn 0.7883 0.2694 0.5532
vn 0.9090 0.2365 -0.3431
vn -0.0288 0.5132 -0.8578
vn -0.8730 0.0699 -0.4826
vn -0.0796 -0.2513 -0.9646
vn 0.7595 -0.4172 -0.4992
vn 0.8324 -0.2610 0.4889
vn -0.8268 0.2359 0.5107
vn 0.0315 0.0697 0.9971
vn -0.0486 -0.3877 0.9205
vn -0.8249 0.1013 0.5561
vn -0.8476 0.3435 -0.4045
vn -0.0127 0.0954 -0.9954
vn 0.7195 -0.6608 0.2136
vn 0.7654 -0.3928 -0.5098
vn -0.2940 -0.9491 -0.1132
vn 0.0982 0.0528 0.9938
vn 0.9478 0.1100 0.2994
vn 0.9704 0.2306 -0.0713
vn 0.2872 0.7534 -0.5916
vn -0.5862 0.7917 -0.1719
vn -0.6617 0.3972 0.6359
vn -0.1382 -0.4385 0.8880
vn -0.8484 -0.0236 0.5289
vn -0.8469 0.3463 -0.4035
vn 0.0059 0.2652 -0.9642
vn 0.8111 -0.5315 0.2441
vn 0.8483 -0.2491 -0.4673
vn 0.4347 -0.3420 -0.8332
vn 0.8738 0.0979 -0.4764
vn 0.6769 0.5549 0.4837
vn -0.1891 0.1245 0.9740
vn -0.4746 -0.7385 -0.4789
vn -0.7286 -0.4270 0.5355
vn 0.5756 -0.6673 0.4726
vn -0.2554 -0.0546 -0.9653
vn -0.6788 -0.2303 -0.6973
vn -0.9850 0.0136 0.1718
vn -0.4433 0.5763 0.6866
vn 0.4137 0.8663 0.2800
vn 0.4803 0.4912 -0.7266
vn 0.3965 -0.3834 -0.8341
vn 0.8057 0.3364 -0.4876
vn 0.5445 0.6928 0.4728
vn -0.2669 0.3019 0.9152
vn -0.3154 -0.8166 -0.4834
vn -0.7519 -0.4510 0.4808
vn 0.8130 0.0621 0.5789
vn -0.0707 0.2555 0.9642
vn -0.8859 0.0291 0.4630
vn -0.8172 -0.3907 -0.4236
vn 0.8817 -0.3577 -0.3077
vn 0.0665 -0.5841 -0.8089
vn -0.0116 -0.9041 0.4272
vn 0.7408 0.6215 0.2551
vn 0.8027 0.2427 -0.5448
vn 0.0673 0.0384 -0.9970
vn -0.7301 0.2129 -0.6493
vn -0.7920 0.5916 0.1505
vn -0.0566 0.7959 0.6027
vn 0.8241 0.1429 0.5482
vn -0.0706 0.3387 0.9383
vn -0.8958 0.1095 0.4309
vn -0.8263 -0.3155 -0.4666
vn 0.8936 -0.2820 -0.3493
vn 0.0684 -0.5113 -0.8567
vn 0.1661 0.0654 -0.9839
vn 0.9002 0.2892 -0.3255
vn 0.7445 -0.0840 0.6623
vn -0.0457 -0.4688 0.8821
vn -0.6646 -0.3100 -0.6799
vn -0.8609 -0.4748 0.1826
vn 0.3933 -0.8958 -0.2073
vn 0.0221 0.6345 -0.7726
vn -0.8446 0.2682 -0.4633
vn -0.9738 0.0786 0.2135
vn -0.3178 0.2014 0.9265
vn 0.4922 0.5107 0.7049
vn 0.6651 0.7286 -0.1637
vn 0.0071 0.1853 -0.9827
vn 0.8909 0.3512 -0.2880
vn 0.6717 0.0581 0.7386
vn -0.1093 -0.3369 0.9352
vn -0.7031 -0.2184 -0.6767
vn -0.7677 -0.5645 0.3033
vn 0.3962 -0.1756 0.9012
vn -0.5783 -0.2108 0.7881
vn -0.9760 -0.1894 -0.1073
vn -0.3921 -0.1313 -0.9105
vn 0.9918 -0.1171 0.0504
vn 0.6453 -0.0810 -0.7596
vn 0.0684 -0.9936 0.0896
vn 0.3330 0.5614 0.7576
vn 0.8669 0.4829 0.1239
vn 0.4247 0.4562 -0.7820
vn -0.2603 0.4596 -0.8491
vn -0.8061 0.5852 -0.0886
vn -0.4685 0.6106 0.6385
vn 0.4006 -0.0954 0.9113
vn -0.5889 -0.0954 0.8025
vn -0.9895 -0.0954 -0.1087
vn -0.3831 -0.0954 -0.9188
vn 0.9950 -0.0936 0.0358
vn 0.6816 -0.1043 -0.7243
usemtl Mineral
s off
f 14//1 2//1 4//1 15//1
f 15//2 4//2 6//2 16//2
f 16//3 6//3 8//3 17//3
f 17//4 8//4 10//4 18//4
f 19//5 12//5 2//5 14//5
f 18//6 10//6 12//6 19//6
f 1//7 3//7 5//7 7//7 9//7 11//7
f 2//8 13//8 4//8
f 12//9 13//9 2//9
f 10//10 13//10 12//10
f 8//11 13//11 10//11
f 6//12 13//12 8//12
f 4//13 13//13 6//13
f 1//14 14//14 15//14 3//14
f 3//15 15//15 16//15 5//15
f 5//16 16//16 17//16 7//16
f 7//17 17//17 18//17 9//17
f 11//18 19//18 14//18 1//18
f 9//19 18//19 19//19 11//19
f 33//20 21//20 23//20 34//20
f 34//21 23//21 25//21 35//21
f 35//22 25//22 27//22 36//22
f 36//23 27//23 29//23 37//23
f 38//24 31//24 21//24 33//24
f 37//25 29//25 31//25 38//25
f 20//26 22//26 24//26 26//26 28//26 30//26
f 21//27 32//27 23//27
f 31//28 32//28 21//28
f 29//29 32//29 31//29
f 27//30 32//30 29//30
f 25//31 32//31 27//31
f 23//32 32//32 25//32
f 20//33 33//33 34//33 22//33
f 22//34 34//34 35//34 24//34
f 24//35 35//35 36//35 26//35
f 26//36 36//36 37//36 28//36
f 30//37 38//37 33//37 20//37
f 28//38 37//38 38//38 30//38
f 52//39 40//39 42//39 53//39
f 53//40 42//40 44//40 54//40
f 54//41 44//41 46//41 55//41
f 55//42 46//42 48//42 56//42
f 57//43 50//43 40//43 52//43
f 56//44 48//44 50//44 57//44
f 39//45 41//45 43//45 45//45 47//45 49//45
f 40//46 51//46 42//46
f 50//47 51//47 40//47
f 48//48 51//48 50//48
f 46//49 51//49 48//49
f 44//50 51//50 46//50
f 42//51 51//51 44//51
f 39//52 52//52 53//52 41//52
f 41//53 53//53 54//53 43//53
f 43//54 54//54 55//54 45//54
f 45//55 55//55 56//55 47//55
f 49//56 57//56 52//56 39//56
f 47//57 56//57 57//57 49//57
f 71//58 59//58 61//58 72//58
f 72//59 61//59 63//59 73//59
f 73//60 63//60 65//60 74//60
f 74//61 65//61 67//61 75//61
f 76//62 69//62 59//62 71//62
f 75//63 67//63 69//63 76//63
f 58//64 60//64 62//64 64//64 66//64 68//64
f 59//65 70//65 61//65
f 69//66 70//66 59//66
f 67//67 70//67 69//67
f 65//68 70//68 67//68
f 63//69 70//69 65//69
f 61//70 70//70 63//70
f 58//71 71//71 72//71 60//71
f 60//72 72//72 73//72 62//72
f 62//73 73//73 74//73 64//73
f 64//74 74//74 75//74 66//74
f 68//75 76//75 71//75 58//75
f 66//76 75//76 76//76 68//76
f 90//77 78//77 80//77 91//77
f 91//78 80//78 82//78 92//78
f 92//79 82//79 84//79 93//79
f 93//80 84//80 86//80 94//80
f 95//81 88//81 78//81 90//81
f 94//82 86//82 88//82 95//82
f 77//83 79//83 81//83 83//83 85//83 87//83
f 78//84 89//84 80//84
f 88//85 89//85 78//85
f 86//86 89//86 88//86
f 84//87 89//87 86//87
f 82//88 89//88 84//88
f 80//89 89//89 82//89
f 77//90 90//90 91//90 79//90
f 79//91 91//91 92//91 81//91
f 81//92 92//92 93//92 83//92
f 83//93 93//93 94//93 85//93
f 87//94 95//94 90//94 77//94
f 85//95 94//95 95//95 87//95
f 109//96 97//96 99//96 110//96
f 110//97 99//97 101//97 111//97
f 111//98 101//98 103//98 112//98
f 112//99 103//99 105//99 113//99
f 114//100 107//100 97//100 109//100
f 113//101 105//101 107//101 114//101
f 96//102 98//102 100//102 102//102 104//102 106//102
f 97//103 108//103 99//103
f 107//104 108//104 97//104
f 105//105 108//105 107//105
f 103//106 108//106 105//106
f 101//107 108//107 103//107
f 99//108 108//108 101//108
f 96//109 109//109 110//109 98//109
f 98//110 110//110 111//110 100//110
f 100//111 111//111 112//111 102//111
f 102//112 112//112 113//112 104//112
f 106//113 114//113 109//113 96//113
f 104//114 113//114 114//114 106//114
f 128//115 116//115 118//115 129//115
f 129//116 118//116 120//116 130//116
f 130//117 120//117 122//117 131//117
f 131//118 122//118 124//118 132//118
f 133//119 126//119 116//119 128//119
f 132//120 124//120 126//120 133//120
f 115//121 117//121 119//121 121//121 123//121 125//121
f 116//122 127//122 118//122
f 126//123 127//123 116//123
f 124//124 127//124 126//124
f 122//125 127//125 124//125
f 120//126 127//126 122//126
f 118//127 127//127 120//127
f 115//128 128//128 129//128 117//128
f 117//129 129//129 130//129 119//129
f 119//130 130//130 131//130 121//130
f 121//131 131//131 132//131 123//131
f 125//132 133//132 128//132 115//132
f 123//133 132//133 133//133 125//133
f 147//134 135//134 137//134 148//134
f 148//135 137//135 139//135 149//135
f 149//136 139//136 141//136 150//136
f 150//137 141//137 143//137 151//137
f 152//138 145//138 135//138 147//138
f 151//139 143//139 145//139 152//139
f 134//140 136//140 138//140 140//140 142//140 144//140
f 135//141 146//141 137//141
f 145//142 146//142 135//142
f 143//143 146//143 145//143
f 141//144 146//144 143//144
f 139//145 146//145 141//145
f 137//146 146//146 139//146
f 134//147 147//147 148//147 136//147
f 136//148 148//148 149//148 138//148
f 138//149 149//149 150//149 140//149
f 140//150 150//150 151//150 142//150
f 144//151 152//151 147//151 134//151
f 142//152 151//152 152//152 144//152
f 166//153 154//153 156//153 167//153
f 167//154 156//154 158//154 168//154
f 168//155 158//155 160//155 169//155
f 169//156 160//156 162//156 170//156
f 171//157 164//157 154//157 166//157
f 170//158 162//158 164//158 171//158
f 153//159 155//159 157//159 159//159 161//159 163//159
f 154//160 165//160 156//160
f 164//161 165//161 154//161
f 162//162 165//162 164//162
f 160//163 165//163 162//163
f 158//164 165//164 160//164
f 156//165 165//165 158//165
f 153//166 166//166 167//166 155//166
f 155//167 167//167 168//167 157//167
f 157//168 168//168 169//168 159//168
f 159//169 169//169 170//169 161//169
f 163//170 171//170 166//170 153//170
f 161//171 170//171 171//171 163//171
f 185//172 173//172 175//172 186//172
f 186//173 175//173 177//173 187//173
f 187//174 177//174 179//174 188//174
f 188//175 179//175 181//175 189//175
f 190//176 183//176 173//176 185//176
f 189//177 181//177 183//177 190//177
f 172//178 174//178 176//178 178//178 180//178 182//178
f 173//179 184//179 175//179
f 183//180 184//180 173//180
f 181//181 184//181 183//181
f 179//182 184//182 181//182
f 177//183 184//183 179//183
f 175//184 184//184 177//184
f 172//185 185//185 186//185 174//185
f 174//186 186//186 187//186 176//186
f 176//187 187//187 188//187 178//187
f 178//188 188//188 189//188 180//188
f 182//189 190//189 185//189 172//189
f 180//190 189//190 190//190 182//190
f 204//191 192//191 194//191 205//191
f 205//192 194//192 196//192 206//192
f 206//193 196//193 198//193 207//193
f 207//194 198//194 200//194 208//194
f 209//195 202//195 192//195 204//195
f 208//196 200//196 202//196 209//196
f 191//197 193//197 195//197 197//197 199//197 201//197
f 192//198 203//198 194//198
f 202//199 203//199 192//199
f 200//200 203//200 202//200
f 198//201 203//201 200//201
f 196//202 203//202 198//202
f 194//203 203//203 196//203
f 191//204 204//204 205//204 193//204
f 193//205 205//205 206//205 195//205
f 195//206 206//206 207//206 197//206
f 197//207 207//207 208//207 199//207
f 201//208 209//208 204//208 191//208
f 199//209 208//209 209//209 201//209
f 223//210 211//210 213//210 224//210
f 224//211 213//211 215//211 225//211
f 225//212 215//212 217//212 226//212
f 226//213 217//213 219//213 227//213
f 228//214 221//214 211//214 223//214
f 227//215 219//215 221//215 228//215
f 210//216 212//216 214//216 216//216 218//216 220//216
f 211//217 222//217 213//217
f 221//218 222//218 211//218
f 219//219 222//219 221//219
f 217//220 222//220 219//220
f 215//221 222//221 217//221
f 213//222 222//222 215//222
f 210//223 223//223 224//223 212//223
f 212//224 224//224 225//224 214//224
f 214//225 225//225 226//225 216//225
f 216//226 226//226 227//226 218//226
f 220//227 228//227 223//227 210//227
f 218//228 227//228 228//228 220//228
f 242//229 230//229 232//229 243//229
f 243//230 232//230 234//230 244//230
f 244//231 234//231 236//231 245//231
f 245//232 236//232 238//232 246//232
f 247//233 240//233 230//233 242//233
f 246//234 238//234 240//234 247//234
f 229//235 231//235 233//235 235//235 237//235 239//235
f 230//236 241//236 232//236
f 240//237 241//237 230//237
f 238//238 241//238 240//238
f 236//239 241//239 238//239
f 234//240 241//240 236//240
f 232//241 241//241 234//241
f 229//242 242//242 243//242 231//242
f 231//243 243//243 244//243 233//243
f 233//244 244//244 245//244 235//244
f 235//245 245//245 246//245 237//245
f 239//246 247//246 242//246 229//246
f 237//247 246//247 247//247 239//247
