# Blender v2.78 (sub 0) OBJ File: ''
# www.blender.org
mtllib minerals1.mtl
o Shard03_Cube.000
v 0.223291 0.010501 0.171661
v 0.223291 0.010501 0.139041
v 0.240728 0.010475 0.153002
v 0.240728 0.010475 0.174153
v 0.237462 0.036034 0.139041
v 0.251077 0.060569 0.139041
v 0.257645 0.040959 0.153002
v 0.249354 0.026021 0.153002
v 0.251077 0.060569 0.171661
v 0.251077 0.060569 0.221673
v 0.257645 0.040959 0.206583
v 0.257645 0.040959 0.174153
v 0.237462 0.036034 0.264344
v 0.223291 0.010501 0.221673
v 0.240728 0.010475 0.206583
v 0.277933 0.010162 0.224662
v 0.257997 0.021225 0.174153
v 0.057501 0.132489 0.174153
v 0.072371 0.124238 0.153002
v 0.065603 0.107660 0.153002
v 0.074897 0.102503 0.174153
v 0.169803 0.076576 0.287341
v 0.150769 0.042277 0.237940
v 0.182476 0.112652 0.170667
v 0.173525 0.083284 0.237940
v 0.169803 0.076576 0.083881
v 0.178812 0.114685 0.126790
v 0.134135 0.010758 0.179862
v 0.192790 0.030944 0.141981
v 0.114349 0.069895 0.137504
v 0.114349 0.069895 0.171620
v 0.091813 0.132986 0.153002
v 0.106777 0.142407 0.137504
v 0.092574 0.116815 0.117605
v 0.091813 0.132986 0.174153
v 0.091813 0.132986 0.206583
v 0.137741 0.111602 0.223926
v 0.106777 0.142407 0.171620
v 0.083523 0.118049 0.206583
v 0.074897 0.102503 0.206583
v 0.077794 0.090181 0.223926
v 0.092574 0.116815 0.223926
vt 0.6089 0.1429
vt 0.5356 0.1899
vt 0.5421 0.1487
vt 0.5896 0.1182
vt 0.0911 0.7662
vt 0.1654 0.7430
vt 0.1467 0.8059
vt 0.1015 0.8201
vt 0.2520 0.0615
vt 0.1257 0.1064
vt 0.1397 0.0592
vt 0.2215 0.0301
vt 0.8181 0.0388
vt 0.7212 0.0709
vt 0.6624 0.0715
vt 0.6498 0.0000
vt 0.1205 0.8736
vt 0.1593 0.8414
vt 0.9523 0.5616
vt 0.8767 0.5591
vt 0.8726 0.5370
vt 0.9025 0.4860
vt 1.0000 0.1612
vt 0.8876 0.1929
vt 0.3472 0.2658
vt 0.1517 0.3183
vt 0.0140 0.5273
vt 0.1323 0.5485
vt 0.7546 0.2392
vt 0.6027 0.2597
vt 0.7368 0.4317
vt 0.8135 0.3826
vt 0.2865 0.5955
vt 0.3341 0.5808
vt 0.3773 0.6074
vt 0.2957 0.6541
vt 0.4102 0.4937
vt 0.3283 0.5228
vt 0.2366 0.4139
vt 0.4181 0.4666
vt 0.2391 0.8242
vt 0.1898 0.8195
vt 0.1692 0.7668
vt 0.2537 0.7747
vt 0.5356 0.4258
vt 0.5042 0.4360
vt 0.4621 0.2367
vt 0.5356 0.1822
vt 0.1654 0.6325
vt 0.2865 0.5273
vt 0.2672 0.5211
vt 0.0221 0.3646
vt 0.7622 0.5721
vt 0.5428 0.4542
vt 0.3173 0.5273
vt 0.0000 0.7258
vt 0.0139 0.7904
vt 0.0000 0.1520
vt 0.4339 0.6064
vt 0.3773 0.6139
vt 0.3841 0.5787
vt 0.4339 0.5273
vt 0.0670 0.8702
vt 0.0545 0.8348
vt 0.0505 0.0000
vt 0.0863 0.9245
vt 0.1654 1.0000
vt 0.2865 0.8286
vt 0.2784 0.9044
vt 0.2274 0.9341
vt 1.0000 0.3884
vt 0.3341 0.5311
vt 0.3773 0.5273
vt 0.9754 0.4393
vt 0.3343 0.0323
vt 0.1817 0.8953
vt 0.2007 0.0104
vt 0.2749 0.0112
vn -0.0015 -1.0000 -0.0000
vn 0.5902 -0.3275 -0.7378
vn 0.5902 -0.3276 -0.7378
vn 0.9482 0.3176 0.0000
vn -0.0277 -0.9147 0.4032
vn 0.9511 -0.2178 -0.2190
vn -0.9689 -0.2211 -0.1115
vn -0.2348 -0.7742 0.5878
vn 0.4617 0.8515 0.2485
vn 0.5749 0.3108 -0.7569
vn -0.1925 -0.8893 -0.4148
vn -0.6195 -0.7844 0.0310
vn -0.5566 0.7511 -0.3551
vn 0.1122 0.9464 0.3030
vn -0.7849 0.4356 0.4406
vn -0.5262 -0.6045 -0.5981
vn 0.0941 0.6814 -0.7259
vn 0.3996 0.8463 0.3523
vn -0.5709 -0.3022 0.7634
vn 0.3107 0.8898 0.3344
vn -0.4570 -0.6920 -0.5588
vn -0.1314 0.7222 0.6791
vn -0.6951 -0.3594 -0.6226
vn 0.0208 -0.6307 -0.7757
vn 0.4528 0.8149 0.3618
vn -0.1644 0.9557 -0.2442
vn 0.6951 -0.6845 -0.2196
vn 0.8256 0.4593 0.3277
vn 0.2440 -0.9519 -0.1856
vn -0.3219 0.8885 0.3270
vn 0.3631 0.9317 0.0072
vn -0.7623 -0.6279 0.1571
vn -0.5328 0.8463 0.0000
vn -0.6989 -0.7027 -0.1333
vn -0.1421 -0.9442 0.2972
vn 0.6024 0.7981 -0.0076
vn -0.9263 -0.1784 0.3319
vn 0.9314 0.3154 -0.1818
usemtl BlueCrystalMaterial.002
s 1
f 1/1/1 2/2/1 3/3/1 4/4/1
f 5/5/2 6/6/3 7/7/3 8/8/2
f 9/9/4 10/10/4 11/11/4 12/12/4
f 13/13/5 14/14/5 15/15/5 16/16/5
f 17/17/6 8/8/6 7/7/6 12/18/6
f 18/19/7 19/20/7 20/21/7 21/22/7
f 22/23/8 23/24/8 14/14/8 13/13/8
f 24/25/9 25/26/9 10/10/9 9/9/9
f 26/27/10 27/28/10 6/6/10 5/5/10
f 28/29/11 29/30/11 2/2/11 1/1/11
f 21/22/12 20/21/12 30/31/12 31/32/12
f 19/33/13 32/34/13 33/35/13 34/36/13
f 35/37/14 36/38/14 37/39/14 38/40/14
f 39/41/15 40/42/15 41/43/15 42/44/15
f 31/32/16 30/31/16 29/30/16 28/29/16
f 34/45/17 33/46/17 27/47/17 26/48/17
f 38/40/18 37/39/18 25/26/18 24/25/18
f 42/44/19 41/43/19 23/49/19 22/50/19
f 37/39/20 42/51/20 22/52/20 25/26/20
f 30/31/21 34/53/21 26/54/21 29/30/21
f 36/38/22 39/55/22 42/51/22 37/39/22
f 20/21/23 19/20/23 34/53/23 30/31/23
f 29/56/24 26/27/24 5/5/24 2/57/24
f 25/26/25 22/52/25 13/58/25 10/10/25
f 35/59/26 32/60/26 19/61/26 18/62/26
f 4/63/27 3/64/27 8/8/27 17/17/27
f 10/10/28 13/58/28 16/65/28 11/11/28
f 2/57/2 5/5/2 8/8/2 3/64/2
f 15/66/29 4/63/29 17/17/29 16/67/29
f 36/68/30 35/69/30 18/70/30 39/41/30
f 33/46/31 38/40/31 24/25/31 27/47/31
f 41/71/32 31/32/32 28/29/32 23/24/32
f 32/34/33 35/72/33 38/73/33 33/35/33
f 40/74/34 21/22/34 31/32/34 41/71/34
f 23/24/35 28/29/35 1/1/35 14/14/35
f 27/47/36 24/25/36 9/9/36 6/75/36
f 39/41/37 18/70/37 21/76/37 40/42/37
f 16/65/38 17/77/38 12/12/38 11/11/38
f 6/75/4 9/9/4 12/12/4 7/78/4
f 14/14/1 1/1/1 4/4/1 15/15/1
