# Blender v2.78 (sub 0) OBJ File: ''
# www.blender.org
mtllib socle.mtl
o Shard01_Cube.002
v 1.275268 -0.758785 -0.355612
v 1.538258 -1.145340 -0.510611
v 0.182876 -0.894953 -1.509443
v 0.199089 -0.559976 -1.148701
v -0.270051 -1.518302 1.328743
v -0.525761 -1.103085 1.670143
v -1.291828 -0.961563 1.105590
v -1.454860 -1.299428 0.455603
v -0.831511 -0.764874 2.169823
v -0.485985 -0.159330 1.852754
v -1.252051 -0.017809 1.288201
v -1.597584 -0.623353 1.605271
v 0.762177 0.134826 0.959081
v 1.586413 -0.002727 -0.289512
v 0.231032 0.247666 -1.288356
v -0.998863 0.460154 -0.338707
v -1.381705 0.436553 0.791498
v 0.709688 -1.191540 0.697811
v 0.681317 -1.783892 0.587820
v -0.196891 0.217672 1.664638
v -0.416099 -0.081369 -1.265247
v -1.051352 -0.866211 -0.599977
v -1.079723 -1.458564 -0.709968
v -1.217221 -0.930166 -0.132934
v 0.302729 -1.210960 0.987178
v 1.344953 -0.406697 0.032547
v 0.820833 -0.060994 -1.535438
v 1.586905 -0.202515 -0.970891
vt 0.1788 0.7266
vt 0.2434 0.6952
vt 0.2434 1.0000
vt 0.1788 0.9686
vt 0.9096 0.2664
vt 0.8266 0.2549
vt 0.8266 0.0826
vt 0.9096 0.0000
vt 0.1788 0.9501
vt 0.0712 0.9501
vt 0.0712 0.7779
vt 0.1788 0.7779
vt 0.5782 0.6813
vt 0.5703 0.8622
vt 0.3312 0.8622
vt 0.2675 0.6813
vt 0.4661 0.0490
vt 0.2675 0.2396
vt 0.2739 0.1131
vt 0.2799 0.0000
vt 0.3819 0.0095
vt 0.0827 0.3193
vt 0.0000 0.2961
vt 0.1082 0.0589
vt 0.1543 0.1135
vt 0.1945 0.6240
vt 0.1026 0.6952
vt 0.0630 0.5854
vt 0.0119 0.5030
vt 0.2540 0.5740
vt 0.5451 0.2349
vt 0.5451 0.4382
vt 0.3937 0.3814
vt 0.3255 0.4456
vt 0.3541 0.3087
vt 0.0000 0.9616
vt 0.0000 0.6952
vt 1.0000 0.8972
vt 0.9012 0.8595
vt 0.9012 0.5931
vt 1.0000 0.5554
vt 0.5782 0.5655
vt 0.7922 0.5554
vt 0.7922 0.9514
vt 0.5782 0.8702
vt 0.4907 0.4718
vt 0.4702 0.5554
vt 0.0694 0.4015
vt 0.2063 0.1708
vt 0.2675 0.3746
vt 0.5274 0.5554
vt 0.3183 0.5554
vt 0.5274 0.8318
vt 0.3183 0.8318
vt 0.3832 0.9578
vt 0.2675 0.8766
vt 0.2374 0.0000
vt 0.2675 0.1056
vt 0.5183 0.9578
vt 0.7329 0.2549
vt 0.7329 0.0826
vt 0.5451 0.1465
vt 0.6331 0.2568
vt 0.7329 0.4678
vt 0.5908 0.3559
vt 0.6161 0.0000
vt 0.7329 0.0510
vt 0.9012 0.9514
vt 0.7922 0.9243
vt 0.7922 0.5825
vt 0.9012 0.5554
vn 0.5423 0.6034 -0.5847
vn -0.4966 -0.7129 0.4951
vn -0.4030 0.5944 0.6959
vn 0.1761 0.9843 0.0078
vn -0.9983 0.0326 0.0489
vn 0.8232 0.0440 0.5661
vn 0.7220 -0.1606 0.6730
vn -0.9128 0.1143 -0.3921
vn -0.3818 0.6302 0.6761
vn 0.1849 -0.8644 -0.4676
vn 0.1392 -0.8994 -0.4143
vn -0.5370 0.4022 -0.7415
vn 0.6378 -0.1721 0.7507
vn 0.1340 0.9888 0.0660
vn 0.6035 0.1269 -0.7872
vn -0.3231 0.5832 -0.7453
vn 0.8878 -0.2003 0.4144
vn 0.3588 0.8958 -0.2624
vn -0.4021 -0.8534 0.3316
vn -0.2157 -0.4838 -0.8482
vn 0.8832 -0.4153 0.2181
vn 0.2729 -0.7783 -0.5654
vn -0.5064 -0.6926 0.5136
usemtl BlueCrystalMaterial.004
s 1
f 1/1/1 2/2/1 3/3/1 4/4/1
f 5/5/2 6/6/2 7/7/2 8/8/2
f 9/9/3 10/10/3 11/11/3 12/12/3
f 13/13/4 14/14/4 15/15/4 16/16/4
f 17/17/5 8/18/5 7/19/5 12/20/5 11/21/5
f 18/22/6 19/23/6 2/24/6 1/25/6
f 10/26/7 9/27/7 6/28/7 5/29/7 20/30/7
f 16/31/8 21/32/8 22/33/8 23/34/8 24/35/8 8/18/8 17/17/8
f 10/10/9 20/36/9 17/37/9 11/11/9
f 25/38/10 5/39/10 8/40/10 24/41/10
f 2/42/11 19/43/11 23/44/11 3/45/11
f 4/46/12 3/47/12 23/34/12 22/33/12
f 20/30/13 5/29/13 25/48/13 19/23/13 18/22/13 26/49/13 13/50/13
f 20/51/14 13/13/14 16/16/14 17/52/14
f 20/51/15 5/53/15 8/54/15 17/52/15
f 15/15/16 27/55/16 21/56/16 16/16/16
f 13/50/17 26/49/17 28/57/17 14/58/17
f 14/14/18 28/59/18 27/55/18 15/15/18
f 6/6/19 9/60/19 12/61/19 7/7/19
f 27/62/20 4/63/20 22/64/20 21/65/20
f 26/49/21 18/22/21 1/25/21 28/57/21
f 28/66/22 1/67/22 4/63/22 27/62/22
f 19/68/23 25/69/23 24/70/23 23/71/23
