# Blender v2.78 (sub 0) OBJ File: ''
# www.blender.org
mtllib tree.mtl
o Cylinder_Cylinder.001
v 0.129885 6.306140 -0.438994
v 0.130106 7.553496 -0.110317
v 0.203247 7.553496 -0.080021
v 0.436169 6.522780 -0.313539
v 0.236842 7.471259 0.004869
v 0.577007 6.306140 0.008128
v 0.203247 7.553496 0.066260
v 0.436169 6.522780 0.298847
v 0.130106 7.553496 0.096557
v 0.129885 6.306140 0.455250
v 0.056966 7.553496 0.066260
v -0.176218 6.522780 0.298847
v 0.026670 7.553496 -0.006881
v -0.317237 6.306140 0.008128
v 0.056966 7.553496 -0.080021
v -0.176218 6.522780 -0.313539
v 0.129885 1.136262 -1.024433
v 0.837082 1.352902 -0.714453
v 1.162446 1.136262 0.008128
v 0.837082 1.352902 0.699760
v 0.129885 1.136262 1.040689
v -0.577131 1.352902 0.699760
v -0.902676 1.136262 0.008128
v -0.577131 1.352902 -0.714453
v -1.131389 1.352902 -1.268710
v -0.475337 2.386878 -0.612658
v 0.129885 2.170238 -0.875786
v 0.129885 1.136262 -1.833794
v -0.940300 2.386878 -1.077622
v -0.373542 3.420854 -0.510864
v 0.129885 3.204213 -0.727139
v 0.129885 2.170238 -1.554755
v -0.753445 3.420854 -0.890767
v -0.271747 4.454829 -0.409069
v 0.129885 4.238189 -0.578492
v 0.129885 3.204213 -1.281898
v -0.569007 4.454829 -0.706329
v -0.169952 5.488805 -0.307274
v 0.129885 5.272164 -0.429846
v 0.129885 4.238189 -1.012570
v -0.389797 5.488805 -0.527119
v -0.068158 6.522780 -0.205480
v 0.129885 6.306140 -0.281199
v 0.129885 5.272164 -0.750876
v -1.712037 1.136262 0.008128
v -0.754029 2.170238 0.008128
v -1.432998 2.170238 0.008128
v -0.605382 3.204213 0.008128
v -1.160141 3.204213 0.008128
v -0.456735 4.238189 0.008128
v -0.890813 4.238189 0.008128
v -0.308088 5.272164 0.008128
v -0.629119 5.272164 0.008128
v -0.159442 6.306140 0.008128
v -1.131389 1.352902 1.254018
v -0.475337 2.386878 0.597966
v -0.940300 2.386878 1.062929
v -0.373542 3.420854 0.496171
v -0.753445 3.420854 0.876075
v -0.271747 4.454829 0.394376
v -0.569007 4.454829 0.691636
v -0.169952 5.488805 0.292582
v -0.389797 5.488805 0.512426
v -0.068158 6.522780 0.190787
v 0.129885 1.136262 1.850050
v 0.129885 2.170238 0.892042
v 0.129885 2.170238 1.571011
v 0.129885 3.204213 0.743396
v 0.129885 3.204213 1.298154
v 0.129885 4.238189 0.594748
v 0.129885 4.238189 1.028826
v 0.129885 5.272164 0.446102
v 0.129885 5.272164 0.767132
v 0.129885 6.306140 0.297455
v 1.391340 1.352902 1.254018
v 0.735288 2.386878 0.597966
v 1.200251 2.386878 1.062929
v 0.633493 3.420854 0.496171
v 1.013397 3.420854 0.876075
v 0.531698 4.454829 0.394376
v 0.828959 4.454829 0.691637
v 0.429904 5.488805 0.292582
v 0.649748 5.488805 0.512426
v 0.328109 6.522780 0.190787
v 1.971807 1.136262 0.008128
v 1.013799 2.170238 0.008128
v 1.692768 2.170238 0.008128
v 0.865153 3.204213 0.008128
v 1.419912 3.204213 0.008128
v 0.716506 4.238189 0.008128
v 1.150583 4.238189 0.008128
v 0.567859 5.272164 0.008128
v 0.888889 5.272164 0.008128
v 0.419212 6.306140 0.008128
v 1.391340 1.352902 -1.268710
v 0.735288 2.386878 -0.612658
v 1.200251 2.386878 -1.077622
v 0.633493 3.420854 -0.510864
v 1.013397 3.420854 -0.890767
v 0.531698 4.454829 -0.409069
v 0.828959 4.454829 -0.706329
v 0.429904 5.488805 -0.307274
v 0.649748 5.488805 -0.527119
v 0.328109 6.522780 -0.205480
vn 0.2386 0.2556 -0.9369
vn 0.9411 0.2673 -0.2072
vn 0.9342 0.2690 0.2345
vn 0.2977 0.2682 0.9162
vn -0.2978 0.2683 0.9162
vn -0.9237 0.2642 0.2776
vn 0.1935 0.9811 0.0000
vn -0.9297 0.2605 -0.2605
vn -0.2387 0.2557 -0.9368
vn 0.0000 -1.0000 -0.0000
vn -0.1825 0.6403 -0.7462
vn -0.1873 0.5839 -0.7899
vn -0.1876 0.5209 -0.8327
vn -0.1803 0.4500 -0.8746
vn -0.1557 0.3741 -0.9142
vn -0.7437 0.6409 -0.1904
vn -0.7869 0.5847 -0.1974
vn -0.8290 0.5219 -0.2009
vn -0.8700 0.4514 -0.1986
vn -0.9083 0.3761 -0.1834
vn -0.7419 0.6412 0.1960
vn -0.7848 0.5851 0.2042
vn -0.8265 0.5225 0.2094
vn -0.8670 0.4521 0.2096
vn -0.9049 0.3770 0.1977
vn -0.2036 0.6417 0.7394
vn -0.2139 0.5857 0.7817
vn -0.2221 0.5232 0.8227
vn -0.2270 0.4531 0.8621
vn -0.2237 0.3785 0.8982
vn 0.2036 0.6417 0.7394
vn 0.2139 0.5857 0.7818
vn 0.2221 0.5232 0.8228
vn 0.2269 0.4531 0.8621
vn 0.2236 0.3785 0.8982
vn 0.7419 0.6412 0.1958
vn 0.7848 0.5851 0.2041
vn 0.8266 0.5224 0.2092
vn 0.8671 0.4521 0.2093
vn 0.9050 0.3770 0.1973
vn 0.7437 0.6408 -0.1903
vn 0.7869 0.5847 -0.1973
vn 0.8291 0.5219 -0.2007
vn 0.8700 0.4513 -0.1984
vn 0.9083 0.3760 -0.1830
vn 0.1824 0.6403 -0.7462
vn 0.1872 0.5839 -0.7899
vn 0.1876 0.5209 -0.8327
vn 0.1802 0.4500 -0.8746
vn 0.1556 0.3740 -0.9143
vn -0.5779 -0.7815 0.2349
vn 0.2245 -0.8028 -0.5524
vn 0.2394 -0.7719 0.5890
vn -0.5631 -0.7941 -0.2289
vn 0.5628 -0.7943 -0.2288
vn -0.2394 -0.7718 0.5891
vn -0.2246 -0.8027 -0.5525
vn 0.5777 -0.7817 0.2348
vn 0.4055 -0.8991 0.1648
vn -0.1590 -0.9065 -0.3912
vn -0.1674 -0.8957 0.4120
vn 0.3971 -0.9035 -0.1614
vn -0.3972 -0.9034 -0.1615
vn 0.1674 -0.8957 0.4119
vn 0.1590 -0.9065 -0.3912
vn -0.4056 -0.8990 0.1649
vn 0.3149 -0.9405 0.1280
vn -0.1243 -0.9440 -0.3058
vn -0.1296 -0.9389 0.3189
vn 0.3095 -0.9425 -0.1258
vn -0.3096 -0.9425 -0.1258
vn 0.1296 -0.9389 0.3189
vn 0.1243 -0.9440 -0.3058
vn -0.3149 -0.9404 0.1280
vn 0.2549 -0.9614 0.1036
vn -0.1011 -0.9633 -0.2488
vn -0.1047 -0.9605 0.2576
vn 0.2513 -0.9625 -0.1022
vn -0.2514 -0.9625 -0.1022
vn 0.1047 -0.9606 0.2576
vn 0.1011 -0.9633 -0.2488
vn -0.2550 -0.9614 0.1036
vn 0.2133 -0.9731 0.0867
vn -0.0849 -0.9742 -0.2090
vn -0.0875 -0.9726 0.2152
vn 0.2108 -0.9738 -0.0857
vn -0.2108 -0.9738 -0.0857
vn 0.0875 -0.9726 0.2152
vn 0.0849 -0.9742 -0.2090
vn -0.2133 -0.9731 0.0867
vn 0.1827 -0.9803 0.0743
vn -0.0730 -0.9810 -0.1795
vn -0.0749 -0.9800 0.1842
vn 0.1809 -0.9808 -0.0735
vn -0.1809 -0.9808 -0.0735
vn 0.0749 -0.9800 0.1842
vn 0.0730 -0.9810 -0.1795
vn -0.1828 -0.9803 0.0743
usemtl mat1.001
s 1
f 1//1 2//1 3//1 4//1
f 4//2 3//2 5//2 6//2
f 6//3 5//3 7//3 8//3
f 8//4 7//4 9//4 10//4
f 10//5 9//5 11//5 12//5
f 12//6 11//6 13//6 14//6
f 3//7 2//7 15//7 13//7 11//7 9//7 7//7 5//7
f 14//8 13//8 15//8 16//8
f 16//9 15//9 2//9 1//9
f 17//10 18//10 19//10 20//10 21//10 22//10 23//10 24//10
f 25//11 26//11 27//11 28//11
f 29//12 30//12 31//12 32//12
f 33//13 34//13 35//13 36//13
f 37//14 38//14 39//14 40//14
f 41//15 42//15 43//15 44//15
f 45//16 46//16 26//16 25//16
f 47//17 48//17 30//17 29//17
f 49//18 50//18 34//18 33//18
f 51//19 52//19 38//19 37//19
f 53//20 54//20 42//20 41//20
f 55//21 56//21 46//21 45//21
f 57//22 58//22 48//22 47//22
f 59//23 60//23 50//23 49//23
f 61//24 62//24 52//24 51//24
f 63//25 64//25 54//25 53//25
f 65//26 66//26 56//26 55//26
f 67//27 68//27 58//27 57//27
f 69//28 70//28 60//28 59//28
f 71//29 72//29 62//29 61//29
f 73//30 74//30 64//30 63//30
f 75//31 76//31 66//31 65//31
f 77//32 78//32 68//32 67//32
f 79//33 80//33 70//33 69//33
f 81//34 82//34 72//34 71//34
f 83//35 84//35 74//35 73//35
f 85//36 86//36 76//36 75//36
f 87//37 88//37 78//37 77//37
f 89//38 90//38 80//38 79//38
f 91//39 92//39 82//39 81//39
f 93//40 94//40 84//40 83//40
f 95//41 96//41 86//41 85//41
f 97//42 98//42 88//42 87//42
f 99//43 100//43 90//43 89//43
f 101//44 102//44 92//44 91//44
f 103//45 104//45 94//45 93//45
f 28//46 27//46 96//46 95//46
f 32//47 31//47 98//47 97//47
f 36//48 35//48 100//48 99//48
f 40//49 39//49 102//49 101//49
f 44//50 43//50 104//50 103//50
f 42//51 16//51 1//51 43//51
f 54//52 14//52 16//52 42//52
f 64//53 12//53 14//53 54//53
f 74//54 10//54 12//54 64//54
f 84//55 8//55 10//55 74//55
f 94//56 6//56 8//56 84//56
f 104//57 4//57 6//57 94//57
f 43//58 1//58 4//58 104//58
f 39//59 44//59 103//59 102//59
f 102//60 103//60 93//60 92//60
f 92//61 93//61 83//61 82//61
f 82//62 83//62 73//62 72//62
f 72//63 73//63 63//63 62//63
f 62//64 63//64 53//64 52//64
f 52//65 53//65 41//65 38//65
f 38//66 41//66 44//66 39//66
f 35//67 40//67 101//67 100//67
f 100//68 101//68 91//68 90//68
f 90//69 91//69 81//69 80//69
f 80//70 81//70 71//70 70//70
f 70//71 71//71 61//71 60//71
f 60//72 61//72 51//72 50//72
f 50//73 51//73 37//73 34//73
f 34//74 37//74 40//74 35//74
f 31//75 36//75 99//75 98//75
f 98//76 99//76 89//76 88//76
f 88//77 89//77 79//77 78//77
f 78//78 79//78 69//78 68//78
f 68//79 69//79 59//79 58//79
f 58//80 59//80 49//80 48//80
f 48//81 49//81 33//81 30//81
f 30//82 33//82 36//82 31//82
f 27//83 32//83 97//83 96//83
f 96//84 97//84 87//84 86//84
f 86//85 87//85 77//85 76//85
f 76//86 77//86 67//86 66//86
f 66//87 67//87 57//87 56//87
f 56//88 57//88 47//88 46//88
f 46//89 47//89 29//89 26//89
f 26//90 29//90 32//90 27//90
f 17//91 28//91 95//91 18//91
f 18//92 95//92 85//92 19//92
f 19//93 85//93 75//93 20//93
f 20//94 75//94 65//94 21//94
f 21//95 65//95 55//95 22//95
f 22//96 55//96 45//96 23//96
f 23//97 45//97 25//97 24//97
f 24//98 25//98 28//98 17//98
o Cylinder.001_Cylinder.002
v 0.129976 0.805452 -0.253187
v 0.129976 1.601277 -0.307346
v 0.342108 1.601277 -0.219478
v 0.303811 0.805452 -0.181182
v 0.429976 1.601277 -0.007346
v 0.375816 0.805452 -0.007346
v 0.342108 1.601277 0.204786
v 0.303811 0.805452 0.166489
v 0.129976 1.601277 0.292654
v 0.129976 0.805452 0.238494
v -0.082156 1.601277 0.204786
v -0.043860 0.805452 0.166489
v -0.170024 1.601277 -0.007346
v -0.115865 0.805452 -0.007346
v -0.082156 1.601277 -0.219478
v -0.043860 0.805452 -0.181182
v 0.129976 0.009627 -0.334834
v 0.361545 0.009627 -0.238915
v 0.457464 0.009627 -0.007346
v 0.361545 0.009627 0.224223
v 0.129976 0.009627 0.320142
v -0.101593 0.009627 0.224223
v -0.197512 0.009627 -0.007346
v -0.101593 0.009627 -0.238915
vn 0.3819 -0.0627 -0.9221
vn 0.9221 -0.0628 -0.3819
vn 0.9221 -0.0628 0.3819
vn 0.3819 -0.0628 0.9221
vn -0.3819 -0.0628 0.9221
vn -0.9221 -0.0627 0.3819
vn 0.0000 1.0000 0.0000
vn -0.9221 -0.0627 -0.3819
vn -0.3819 -0.0627 -0.9221
vn 0.0000 -1.0000 -0.0000
vn -0.3810 0.0944 -0.9198
vn -0.9198 0.0944 -0.3810
vn -0.9198 0.0944 0.3810
vn -0.3810 0.0944 0.9198
vn 0.3810 0.0944 0.9198
vn 0.9198 0.0944 0.3810
vn 0.9198 0.0944 -0.3810
vn 0.3810 0.0944 -0.9198
usemtl mat1
s 1
f 105//99 106//99 107//99 108//99
f 108//100 107//100 109//100 110//100
f 110//101 109//101 111//101 112//101
f 112//102 111//102 113//102 114//102
f 114//103 113//103 115//103 116//103
f 116//104 115//104 117//104 118//104
f 107//105 106//105 119//105 117//105 115//105 113//105 111//105 109//105
f 118//106 117//106 119//106 120//106
f 120//107 119//107 106//107 105//107
f 121//108 122//108 123//108 124//108 125//108 126//108 127//108 128//108
f 128//109 120//109 105//109 121//109
f 127//110 118//110 120//110 128//110
f 126//111 116//111 118//111 127//111
f 125//112 114//112 116//112 126//112
f 124//113 112//113 114//113 125//113
f 123//114 110//114 112//114 124//114
f 122//115 108//115 110//115 123//115
f 121//116 105//116 108//116 122//116
